<svg xmlns="http://www.w3.org/2000/svg" xmlns:xlink="http://www.w3.org/1999/xlink" width="16" height="21" version="1.1" viewBox="0 0 16 21"><title>Icon</title><desc>Created with Sketch.</desc><g id="Artboard-5" fill="none" fill-rule="evenodd" stroke="none" stroke-width="1" transform="translate(-34.000000, -21.000000)"><g id="ic_lock_open-copy" fill="#FFF" transform="translate(26.000000, 19.000000)"><path id="Icon" d="M16,18 C17.1,18 18,17.1 18,16 C18,14.9 17.1,14 16,14 C14.9,14 14,14.9 14,16 C14,17.1 14.9,18 16,18 L16,18 Z M22,9 L21,9 L21,7 C21,4.24 18.76,2 16,2 C13.24,2 11,4.24 11,7 L12.9,7 C12.9,5.29 14.29,3.9 16,3.9 C17.71,3.9 19.1,5.29 19.1,7 L19.1,9 L10,9 C8.9,9 8,9.9 8,11 L8,21 C8,22.1 8.9,23 10,23 L22,23 C23.1,23 24,22.1 24,21 L24,11 C24,9.9 23.1,9 22,9 L22,9 Z M22,21 L10,21 L10,11 L22,11 L22,21 L22,21 Z"/></g></g></svg>