<svg xmlns="http://www.w3.org/2000/svg" xmlns:xlink="http://www.w3.org/1999/xlink" width="28" height="28" version="1.1" viewBox="0 0 28 28"><title>adx</title><desc>Created with Sketch.</desc><g id="Wallet" fill="none" fill-rule="evenodd" stroke="none" stroke-width="1"><g id="adx" fill-rule="nonzero"><g id="bg" fill="#E1F0FC"><g id="path0_fill-link"><path id="path0_fill" d="M14,28 C21.732,28 28,21.732 28,14 C28,6.26801 21.732,0 14,0 C6.26801,0 0,6.26801 0,14 C0,21.732 6.26801,28 14,28 Z"/></g></g><g id="Vector" fill="#1B75BC" transform="translate(7.000000, 7.000000)"><g id="path1_fill-link" transform="translate(0.000000, 0.240200)"><polygon id="path1_fill" points="14 10.979 9.594 6.732 14 2.492 11.403 0 6.996 4.24 2.59 0 0 2.492 4.406 6.732 0 10.979 2.59 13.472 6.996 9.232 11.403 13.472"/></g></g><g id="Vector" fill="#3C3C3B" transform="translate(9.000000, 3.000000)"><g id="path2_fill-link" transform="translate(0.867000, 0.000000)"><polygon id="path2_fill" points="8.267 3.974 6.308 2.089 4.13 0 1.958 2.089 0 3.974 2.178 6.07 4.13 4.186 6.088 6.07"/></g></g><g id="Vector" fill="#3C3C3B" transform="translate(9.000000, 18.000000)"><g id="path3_fill-link" transform="translate(0.867000, 0.929900)"><polygon id="path3_fill" points="0 2.096 1.958 3.981 4.13 6.07 6.308 3.981 8.267 2.096 6.088 0 4.13 1.885 2.178 0"/></g></g></g></g></svg>