<svg xmlns="http://www.w3.org/2000/svg" xmlns:xlink="http://www.w3.org/1999/xlink" width="201" height="200" version="1.1" viewBox="0 0 201 200"><title>BNB</title><desc>Created with Sketch.</desc><g id="Page-1" fill="none" fill-rule="evenodd" stroke="none" stroke-width="1"><g id="Artboard" transform="translate(-414.000000, -4631.000000)"><g id="BNB" transform="translate(414.000000, 4630.000000)"><path id="Fill-158" fill="#212121" d="M200.9573,100.9891 C200.9573,156.2181 156.1863,200.9891 100.9573,200.9891 C45.7283,200.9891 0.9573,156.2181 0.9573,100.9891 C0.9573,45.7601 45.7283,0.9891 100.9573,0.9891 C156.1863,0.9891 200.9573,45.7601 200.9573,100.9891"/><polygon id="Fill-160" fill="#F4BB0B" points="100.957 120.613 81.332 100.989 100.957 81.364 120.582 100.989"/><polygon id="Fill-162" fill="#F4BB0B" points="145.555 100.989 145.472 101.071 163.674 119.272 181.957 100.989 163.548 82.579 145.346 100.78"/><polygon id="Fill-164" fill="#F4BB0B" points="69.414 87.934 100.957 56.391 132.964 88.398 151.165 70.197 100.957 19.989 51.213 69.733"/><polygon id="Fill-166" fill="#F4BB0B" points="133.09 113.454 100.957 145.587 69.109 113.738 50.908 131.939 100.957 181.989 151.291 131.655"/><polygon id="Fill-168" fill="#F4BB0B" points="56.36 100.989 57.032 100.317 38.831 82.115 19.958 100.989 38.526 119.557 56.727 101.356"/></g></g></g></svg>