<svg xmlns="http://www.w3.org/2000/svg" xmlns:xlink="http://www.w3.org/1999/xlink" width="28" height="28" version="1.1" viewBox="0 0 28 28"><title>BTM</title><desc>Created with Sketch.</desc><g id="IOS?-(for-Mike-Le)" fill="none" fill-rule="evenodd" stroke="none" stroke-width="1"><g id="Artboard-2-Copy" transform="translate(-151.000000, -73.000000)"><g id="BTM" transform="translate(151.000000, 73.000000)"><circle id="Oval-2" cx="14" cy="14" r="13.5" fill="#FFF" stroke="#666"/><g id="Group" fill-rule="nonzero" opacity=".8"><g fill="#040000" transform="translate(5.000000, 5.500000)"><polygon id="Shape" points="5.887 2.62 10.513 7.246 6.589 0 3.308 3.31"/><polygon id="Shape" points="11.113 14.38 6.487 9.754 10.411 17 13.69 13.69"/><polygon id="Shape" points="2.62 11.113 5.586 4.825 1.046 9.367 0 10.411 3.31 13.69"/><polygon id="Shape" points="14.382 5.885 9.754 10.513 17 6.589 13.69 3.308"/></g><g fill="#323333" transform="translate(5.000000, 5.500000) translate(3.000000, 0.000000)"><polygon id="Shape" points="9.301 5.584 4.882 1.046 3.865 0 7.685 7.246"/><polygon id="Shape" points="2.151 11.414 7.586 17 3.766 9.754"/><polygon id="Shape" points="4.505 6.487 2.889 4.825 .002 11.113"/><polygon id="Shape" points="8.563 12.173 14 6.589 6.947 10.513"/></g><g fill="#555" transform="translate(5.000000, 5.500000)"><polygon id="Shape" points="1.394 1.392 0 6.589 2.839 5.064"/><polygon id="Shape" points="15.608 15.608 17 10.411 14.161 11.934"/><polygon id="Shape" points="1.394 15.606 6.589 17 5.066 14.159"/><polygon id="Shape" points="15.608 1.392 10.411 0 11.934 2.839"/></g><g fill="#323333" transform="translate(5.000000, 5.500000)"><polygon id="Shape" points="3.308 3.31 6.589 0 1.394 1.392 2.839 5.064"/><polygon id="Shape" points="13.69 13.69 10.411 17 15.608 15.608 14.161 11.934"/><polygon id="Shape" points="3.31 13.69 0 10.411 1.394 15.606 5.066 14.159"/><polygon id="Shape" points="13.69 3.308 17 6.589 15.608 1.392 11.934 2.839"/></g><g fill="#040000" transform="translate(5.000000, 5.500000)"><polygon id="Shape" points="2.839 5.064 0 6.589 .659 7.246"/><polygon id="Shape" points="14.161 11.934 17 10.411 16.341 9.754"/><polygon id="Shape" points="6.589 17 7.246 16.341 5.066 14.159"/><polygon id="Shape" points="10.411 0 9.754 .659 11.934 2.839"/></g></g></g></g></g></svg>