<svg xmlns="http://www.w3.org/2000/svg" xmlns:xlink="http://www.w3.org/1999/xlink" width="24" height="28" version="1.1" viewBox="0 0 24 28"><title>dta</title><desc>Created with Sketch.</desc><g id="Wallet" fill="none" fill-rule="evenodd" stroke="none" stroke-width="1"><g id="New" transform="translate(-151.000000, -251.000000)"><g id="dta" transform="translate(149.000000, 251.000000)"><rect id="Rectangle-2" width="28" height="28" x="0" y="0"/><g id="Asset-16" fill-rule="evenodd" stroke-width="1" transform="translate(2.438119, 0.500000)"><path id="Shape" fill="#70D462" fill-rule="nonzero" d="M18.980198,11.1555446 L18.8799505,11.095396 L4.00990099,2.22950495 L8.01980198,0 L23.1237624,8.7870297 L18.980198,11.1555446 Z M4.81188119,2.24153465 L18.980198,10.6930693 L22.3217822,8.78435644 L8.01980198,0.461138614 L4.81188119,2.24153465 Z"/><polygon id="Shape" fill="#70D462" fill-rule="nonzero" points="18.98 11.125 18.98 15.803 23.124 13.33 23.124 8.786"/><path id="Shape" fill="#70D462" fill-rule="nonzero" d="M18.980198,11.0579703 L4.27722772,2.36985149"/><rect id="Rectangle-path" width="1" height="12.965" x="3.876" y="6.781" fill="#2570CF" fill-rule="nonzero"/><polygon id="Shape" fill="#2570CF" fill-rule="nonzero" points="8.791 8.919 8.791 4.508 8.02 4.508 8.02 17.474 8.791 17.474 8.791 9.385 8.261 9.157 8.261 8.692"/><polygon id="Shape" fill="#2570CF" fill-rule="nonzero" points=".771 4.704 .771 21.885 .271 21.885 0 21.763 0 21.481 .004 4.511 .004 4.506 .161 4.442"/><polygon id="Shape" fill="#202545" fill-rule="nonzero" points="15.505 13.564 7.434 18.284 6.865 18.615 4.789 19.83 4.248 20.147 3.876 19.948 3.876 19.649 4.149 19.489 6.865 17.902 7.434 17.57 14.913 13.197"/><polygon id="Shape" fill="#202545" fill-rule="nonzero" points="18.919 15.584 11.285 20.017 10.747 20.329 8.271 21.767 7.667 21.446 10.747 19.658 11.285 19.346 18.359 15.239"/><path id="Shape" fill="#202545" fill-rule="nonzero" d="M23.1237624,13.1965842 L23.1237624,18.4308416 L22.990099,18.5083663 C17.2011386,21.8165347 8.28712871,26.9639109 8.28712871,26.9639109 L8.28712871,26.3824752 C8.6520297,26.1605941 9.22277228,25.8304455 10.0902475,25.3198515 C11.394802,24.5566337 13.120396,23.5581683 15.2376238,22.3378218 C18.5417822,20.4344554 21.884703,18.5230693 22.5891089,18.1207426 L22.5891089,13.4639109 L23.1237624,13.1965842 Z"/><path id="Shape" fill="#202545" fill-rule="nonzero" d="M8.59277228,26.3824752 L8.59277228,27.1532673 L7.8219802,26.7793889 C7.98588426,26.6854763 8.22952544,26.5596688 8.59277228,26.3824752 Z"/><polyline id="Shape" points="4.144 24.157 .536 21.83 .001 21.485"/><polygon id="Shape" fill="#2570CF" fill-rule="nonzero" points="4.271 23.96 4.144 24.157 4.017 24.353 .19 21.885 .001 21.763 .001 21.485 0 21.484 .001 21.481 .127 21.287 .536 21.551"/><polygon id="Shape" fill="#202545" fill-rule="nonzero" points="8.287 21.751 8.287 26.964 7.822 26.682 3.876 24.291 3.876 19.649 4.149 19.489 4.662 19.762 4.789 19.83"/><polygon id="Shape" fill="#2570CF" fill-rule="nonzero" points="8.958 8.945 8.958 9.463 8.187 9.21 8.187 8.692"/><polygon id="Shape" fill="#70D462" fill-rule="nonzero" points="19.044 10.628 18.974 15.82 15.31 13.557 14.787 13.234 8.554 9.385 8.554 8.919 18.589 15.117 18.649 10.622"/><polygon id="Shape" fill="#2570CF" fill-rule="nonzero" points="8.554 4.508 8.097 4.772 4.144 7.048 .537 4.837 .536 4.836 .004 4.511 0 4.508 .004 4.506 .114 4.442 .229 4.375 4.411 1.969 8.258 4.327"/></g></g></g></g></svg>