<svg xmlns="http://www.w3.org/2000/svg" xmlns:xlink="http://www.w3.org/1999/xlink" width="28" height="28" version="1.1" viewBox="0 0 28 28"><title>iost copy</title><desc>Created with Sketch.</desc><g id="iost-copy" fill="none" fill-rule="evenodd" stroke="none" stroke-width="1"><g><rect id="bound" width="28" height="28" x="0" y="0"/><g id="iost-shape" fill="#0A0A08" fill-rule="nonzero" transform="translate(2.057692, 0.500000)"><path id="Shape" d="M23.8846154,6.75 L11.9423077,-2.22044605e-16 L0,6.75 L0,20.25 L11.9423077,27 L23.8846154,20.25 L23.8846154,6.75 Z M11.9423077,-1.14868216 L24.8846154,6.16653523 L24.8846154,20.8334648 L11.9423077,28.1486822 L-1,20.8334648 L-1,6.16653523 L11.9423077,-1.14868216 Z"/><g id="Group" transform="translate(3.317308, 4.725000)"><polygon id="Shape" points="8.798 17.55 0 12.395 .035 9.89 8.792 15.039 13.013 12.535 .338 5.015 8.793 0 16.769 4.675 14.632 5.95 8.797 2.511 4.577 5.015 17.25 12.535"/><polygon id="Shape" points="6.124 9.45 3.981 8.152 8.472 5.4 10.615 6.698"/><polygon id="Shape" points="10.105 12.15 7.962 10.852 12.452 8.1 14.596 9.398"/></g></g></g></g></svg>