<svg xmlns="http://www.w3.org/2000/svg" xmlns:xlink="http://www.w3.org/1999/xlink" width="28" height="28" version="1.1" viewBox="0 0 28 28"><title>ethlend</title><desc>Created with Sketch.</desc><defs><linearGradient id="linearGradient-1" x1="7.42%" x2="93.971%" y1="23.155%" y2="74.706%"><stop offset="0%" stop-color="#02AAC7"/><stop offset="100%" stop-color="#1A91C9"/></linearGradient></defs><g id="Wallet" fill="none" fill-rule="evenodd" stroke="none" stroke-width="1"><g id="New" transform="translate(-476.000000, -220.000000)"><g id="ethlend" transform="translate(476.000000, 220.000000)"><g id="Group-2"><g id="Group" fill-rule="nonzero"><circle id="Oval" cx="14" cy="14" r="13.5" fill="url(#linearGradient-1)" stroke="#0086C3"/><path id="Combined-Shape" fill="#FFF" d="M19.0609945,10.0148407 L25.0917638,10.0148407 L25.0917638,12.1686869 L19.0609945,12.1686869 L19.0609945,18.1994561 L16.9071484,18.1994561 L16.9071484,10.0148407 L19.0609945,10.0148407 Z M9.15330224,18.1994561 L3.12253301,18.1994561 L3.12253301,16.0456099 L9.15330224,16.0456099 L9.15330224,10.0148407 L11.3071484,10.0148407 L11.3071484,18.1994561 L9.15330224,18.1994561 Z M13.0302253,10.0148407 L15.1840715,10.0148407 L15.1840715,18.1994561 L13.0302253,18.1994561 L13.0302253,10.0148407 Z" transform="translate(14.107148, 14.107148) rotate(-45.000000) translate(-14.107148, -14.107148)"/><path id="Combined-Shape" fill="#0086C3" d="M24.9846154,9.90769231 L16.8,9.90769231 L16.8,18.0923077 L18.9538462,18.0923077 L18.9538462,12.0615385 L24.9846154,12.0615385 L24.9846154,9.90769231 Z M19.3846154,18.5230769 L16.3692308,18.5230769 L16.3692308,9.47692308 L25.4153846,9.47692308 L25.4153846,12.4923077 L19.3846154,12.4923077 L19.3846154,18.5230769 Z M3.01538462,18.0923077 L11.2,18.0923077 L11.2,9.90769231 L9.04615385,9.90769231 L9.04615385,15.9384615 L3.01538462,15.9384615 L3.01538462,18.0923077 Z M8.61538462,15.5076923 L8.61538462,9.47692308 L11.6307692,9.47692308 L11.6307692,18.5230769 L2.58461538,18.5230769 L2.58461538,15.5076923 L3.01538462,15.5076923 L8.61538462,15.5076923 Z M12.9230769,9.90769231 L12.9230769,18.0923077 L15.0769231,18.0923077 L15.0769231,9.90769231 L12.9230769,9.90769231 Z M12.4923077,9.47692308 L15.5076923,9.47692308 L15.5076923,18.5230769 L12.4923077,18.5230769 L12.4923077,9.47692308 Z" transform="translate(14.000000, 14.000000) rotate(-45.000000) translate(-14.000000, -14.000000)"/></g></g></g></g></g></svg>