<svg xmlns="http://www.w3.org/2000/svg" xmlns:xlink="http://www.w3.org/1999/xlink" width="28" height="28" version="1.1" viewBox="0 0 28 28"><title>pay</title><desc>Created with Sketch.</desc><defs><linearGradient id="linearGradient-1" x1="0%" x2="100%" y1="50%" y2="50%"><stop offset="0%" stop-color="#231F20"/><stop offset="100%" stop-color="#3F3A3A"/></linearGradient><linearGradient id="linearGradient-2" x1="83.968%" x2="8.411%" y1="86.802%" y2="30.129%"><stop offset="0%" stop-color="#1D1D20"/><stop offset="100%" stop-color="#4E4E54" stop-opacity="0"/></linearGradient><linearGradient id="linearGradient-3" x1="6.527%" x2="91.759%" y1="25.429%" y2="70.198%"><stop offset="0%" stop-color="#1D1D20"/><stop offset="100%" stop-color="#4E4E54" stop-opacity="0"/></linearGradient><linearGradient id="linearGradient-4" x1="39.126%" x2="96.266%" y1="65.136%" y2="15.347%"><stop offset="0%" stop-color="#18181B" stop-opacity="0"/><stop offset="40.67%" stop-color="#3A3A3F" stop-opacity=".098"/><stop offset="49.41%" stop-color="#616167" stop-opacity=".23"/><stop offset="57.99%" stop-color="#808088" stop-opacity=".358"/><stop offset="66.23%" stop-color="#96969E" stop-opacity=".482"/><stop offset="73.99%" stop-color="#A3A3AC" stop-opacity=".598"/><stop offset="80.77%" stop-color="#A8A8B1" stop-opacity=".7"/><stop offset="83.25%" stop-color="#A2A2AB" stop-opacity=".61"/><stop offset="86.65%" stop-color="#919199" stop-opacity=".486"/><stop offset="90.59%" stop-color="#75757C" stop-opacity=".343"/><stop offset="94.93%" stop-color="#4E4E54" stop-opacity=".185"/><stop offset="99.54%" stop-color="#1D1D20" stop-opacity=".017"/><stop offset="100%" stop-color="#18181B" stop-opacity="0"/></linearGradient></defs><g id="Wallet" fill="none" fill-rule="evenodd" stroke="none" stroke-width="1"><g id="New" transform="translate(-348.000000, -89.000000)"><g id="Group-2" transform="translate(47.000000, 89.000000)"><g id="pay" transform="translate(301.000000, 0.000000)"><circle id="Oval-2" cx="14" cy="14" r="14" fill="#F1F0F0"/><g id="tenx_logo_dark" stroke-width="1" transform="translate(3.500000, 7.571429)"><g id="Group" fill-rule="nonzero"><g id="Shape"><path fill="url(#linearGradient-1)" d="M5.82826087,3 L9.1,6.44387755 L10.5152174,4.98979592 C10.2413043,4.71428571 5.95,0.244897959 5.82826087,0.12244898 C3.94130435,2.1122449 2.00869565,3.99489796 0.197826087,5.96938776 C-6.24500451e-16,6.18367347 -6.24500451e-16,6.67346939 0.197826087,6.8877551 C1.97826087,8.83163265 3.86521739,10.6836735 5.82826087,12.7653061 C8.99347826,9.45918367 12.0369565,6.32142857 15.1869565,3.01530612 C16.2521739,4.11734694 17.1956522,5.02040816 18.0173913,5.98469388 C18.2456522,6.24489796 18.1543478,6.73469388 17.9108696,7.01020408 C17.1195652,7.92857143 15.1869565,9.81122449 15.1869565,9.81122449 L11.9,6.44387755 L10.5,7.89795918 C10.8195652,8.23469388 14.4869565,12.0459184 15.1869565,12.7653061 C16.9065217,10.9591837 18.4586957,9.36734694 20.0565217,7.69897959 C20.3304348,7.40816327 20.6195652,7.10204082 20.8478261,6.76530612 C21.0304348,6.56632653 20.923913,6.18367347 20.726087,5.96938776 C18.9608696,4.05612245 17.1652174,2.21938776 15.1869565,0.137755102 C12.0217391,3.42857143 8.97826087,6.55102041 5.82826087,9.84183673 C4.74782609,8.7244898 3.74347826,7.71428571 2.81521739,6.68877551 C2.67826087,6.53571429 2.70869565,6.24489796 2.86086957,6.07653061 C3.77391304,5.08163265 4.74782609,4.10204082 5.82826087,3 Z"/><polygon fill="url(#linearGradient-2)" points="9.1 6.444 10.515 4.974 5.828 .122 5.828 3"/><polygon fill="url(#linearGradient-3)" points="11.915 6.444 10.515 7.898 13.041 10.515 14.198 8.786"/></g><polygon id="Shape" fill="url(#linearGradient-4)" points="4.428 11.296 5.828 12.765 15.202 3.015 15.202 .122" opacity=".5"/></g></g></g></g></g></g></svg>