<svg xmlns="http://www.w3.org/2000/svg" xmlns:xlink="http://www.w3.org/1999/xlink" width="28" height="28" version="1.1" viewBox="0 0 28 28"><title>poly</title><desc>Created with Sketch.</desc><g id="Wallet" fill="none" fill-rule="evenodd" stroke="none" stroke-width="1"><g id="Artboard" transform="translate(-49.000000, -35.000000)"><g id="poly"><g transform="translate(49.000000, 35.000000)"><circle id="Oval" cx="14" cy="14" r="14" fill="#DBDBDB" fill-rule="nonzero"/><g id="Group" fill-rule="nonzero" transform="translate(2.512821, 7.897436)"><polygon id="Shape" fill="#5B6FAD" points="20.333 .13 20.46 .519 22.038 .019"/><polygon id="Shape" fill="#313A63" points="16.428 1.418 19.205 2.23 18.317 1.566"/><polygon id="Shape" fill="#303863" points="22.728 .697 22.813 1.474 22.313 1.319"/><polygon id="Shape" fill="#49578D" points="18.317 2.921 21.503 2.921 21.08 2.421"/><polygon id="Shape" fill="#2F3964" points="19.205 2.23 19.618 2.607 18.317 2.774"/><polygon id="Shape" fill="#4E60A3" points="19.254 3.445 21.503 2.774 18.317 2.774"/><polygon id="Shape" fill="#3F4A81" points="16.428 1.418 18.317 2.774 19.205 2.23"/><polygon id="Shape" fill="#323967" points="19.975 3.229 20.283 4.271 19.254 3.445"/><polygon id="Shape" fill="#313A63" points="20.424 7.075 20.283 4.271 19.163 7.654"/><polygon id="Shape" fill="#3F4A80" points="19.254 3.445 19.163 7.654 20.283 4.271"/><polygon id="Shape" fill="#4A5692" points="17.027 6.284 19.254 3.445 19.163 7.654"/><polygon id="Shape" fill="#3F4A80" points="16.717 3.643 19.254 3.445 17.027 6.284"/><polygon id="Shape" fill="#4A5897" points="16.428 1.418 16.717 3.643 19.254 3.445"/><polygon id="Shape" fill="#323A65" points="16.294 5.549 17.027 6.284 16.717 3.643"/><polygon id="Shape" fill="#313A63" points="13.722 .019 16.428 1.418 16.717 3.643"/><polygon id="Shape" fill="#3E4A80" points="16.294 5.549 13.722 .019 16.717 3.643"/><polygon id="Shape" fill="#4A5897" points="12.143 .34 13.722 .019 16.294 5.549"/><polygon id="Shape" fill="#5161A2" points="11.8 3.819 16.294 5.549 12.143 .34"/><polygon id="Shape" fill="#4A5897" points="7.182 4.464 11.8 3.819 12.143 .34"/><polygon id="Shape" fill="#3F4A80" points="11.363 6.908 11.8 3.819 7.182 4.464"/><polygon id="Shape" fill="#4A5897" points="16.294 5.549 11.363 6.908 11.8 3.819"/><polygon id="Shape" fill="#5260A4" points="16.294 5.549 16.231 6.616 14.047 6.593"/><polygon id="Shape" fill="#3F4980" points="11.363 6.908 14.047 6.593 16.294 5.549"/><polygon id="Shape" fill="#4A5897" points="16.231 6.616 14.84 8.711 14.047 6.593"/><polygon id="Shape" fill="#313B61" points="11.363 6.908 11.392 7.831 14.047 6.593"/><polygon id="Shape" fill="#3F4A80" points="14.84 8.711 13.661 8.49 14.047 6.593"/><polygon id="Shape" fill="#3F4A7F" points="11.363 6.908 8.591 7.35 11.392 7.831"/><polygon id="Shape" fill="#4A5897" points="13.661 8.49 13.134 9.45 14.84 8.711"/><polygon id="Shape" fill="#3F4A80" points="12.402 8.556 13.661 8.49 12.078 10.166"/><polygon id="Shape" fill="#30395F" points="13.134 9.45 12.078 10.166 13.661 8.49"/><polygon id="Shape" fill="#4A5897" points="7.182 4.464 8.591 7.35 11.363 6.908"/><polygon id="Shape" fill="#313A63" points="7.182 4.464 7.233 8.405 8.591 7.35"/><polygon id="Shape" fill="#3F4A80" points="5.387 8.575 7.233 8.405 7.182 4.464"/><polygon id="Shape" fill="#313A63" points="5.387 8.575 6.411 9.723 7.233 8.405"/><polygon id="Shape" fill="#4A5897" points="7.182 4.464 4.856 5.246 5.387 8.575"/><polygon id="Shape" fill="#4A5897" points="6.411 9.723 3.066 11.084 5.387 8.575"/><polygon id="Shape" fill="#5261A4" points="4.856 5.246 3.874 6.286 5.387 8.575"/><polygon id="Shape" fill="#323A63" points="3.066 11.084 5.387 8.575 3.874 8.876"/><polygon id="Shape" fill="#3F4A80" points="3.874 6.286 3.874 8.876 5.387 8.575"/><polygon id="Shape" fill="#3F4A84" points="3.066 11.084 3.221 12.84 4.322 10.573"/><polygon id="Shape" fill="#313A63" points="3.874 6.286 2.14 6.286 3.874 7.341"/><polygon id="Shape" fill="#1F2340" points="3.066 11.084 3.221 12.84 2.596 13.156"/><polygon id="Shape" fill="#3E4B80" points="2.14 6.286 2.277 7.03 3.874 7.341"/><polygon id="Shape" fill="#333C63" points="3.221 12.84 2.093 13.976 2.596 13.156"/><polygon id="Shape" fill="#3E4A82" points="2.093 13.976 3.39 13.721 3.221 12.84"/><polygon id="Shape" fill="#313B64" points="1.238 7.93 .049 8.273 1.205 8.457"/><polygon id="Shape" fill="#4C5DA9" points="22.313 1.319 21.503 2.774 22.602 1.474"/><polygon id="Shape" fill="#404983" points="21.08 2.421 22.313 1.319 21.503 2.774"/><polygon id="Shape" fill="#475692" points="20.333 .118 20.46 .464 18.317 1.566"/><polygon id="Shape" fill="#3E4B83" points="19.205 2.23 18.317 1.566 20.46 .464"/><polygon id="Shape" fill="#4D5AAE" points="2.14 6.286 1.238 7.93 2.277 7.03"/><polygon id="Shape" fill="#485E9B" points="1.205 8.457 2.277 7.03 1.238 7.93"/></g></g></g></g></g></svg>