<svg xmlns="http://www.w3.org/2000/svg" xmlns:xlink="http://www.w3.org/1999/xlink" width="33" height="30" version="1.1" viewBox="0 0 33 30"><title>F3BD4B6D-4E77-447A-86A4-F30D2B979E84</title><desc>Created with sketchtool.</desc><g id="Symbols" fill="none" fill-rule="evenodd" stroke="none" stroke-width="1"><g id="metamask_gray"><g id="Group-7"><polygon id="Path" fill="#9DAFC6" stroke="#9DAFC6" stroke-linecap="round" stroke-linejoin="round" stroke-width=".5" points="30.325 .063 17.875 9.418 20.188 3.899"/><g id="Group" fill="#9DAFC6" transform="translate(0.250000, 0.000000)"><polygon id="Path" stroke="#9DAFC6" stroke-linecap="round" stroke-linejoin="round" stroke-width=".5" points="1.363 .063 13.7 9.506 11.5 3.899"/><polygon id="Path" stroke="#9DAFC6" stroke-linecap="round" stroke-linejoin="round" stroke-width=".5" points="25.6 21.747 22.288 26.886 29.375 28.861 31.4 21.861"/><polygon id="Path" stroke="#9DAFC6" stroke-linecap="round" stroke-linejoin="round" stroke-width=".5" points=".05 21.861 2.063 28.861 9.15 26.886 5.85 21.747"/><polygon id="Path" stroke="#9DAFC6" stroke-linecap="round" stroke-linejoin="round" stroke-width=".5" points="8.762 13.063 6.787 16.089 13.813 16.405 13.575 8.747"/><polygon id="Path" stroke="#9DAFC6" stroke-linecap="round" stroke-linejoin="round" stroke-width=".5" points="22.675 13.063 17.788 8.658 17.625 16.405 24.65 16.089"/><polygon id="Path" points="9.15 26.886 13.387 24.797 9.738 21.911"/><polygon id="Path" points="18.05 24.797 22.288 26.886 21.7 21.911"/></g><g id="Group" fill="#E4E8EA" stroke="#E4E8EB" stroke-linecap="round" stroke-linejoin="round" stroke-width=".5" transform="translate(9.375000, 24.683544)"><polygon id="Path" points="13.162 2.203 8.925 .114 9.262 2.911 9.225 4.089"/><polygon id="Path" points=".025 2.203 3.962 4.089 3.938 2.911 4.263 .114"/></g><polygon id="Path" fill="#FFF" points="13.412 20.063 9.887 19.013 12.375 17.861"/><polygon id="Path" fill="#FFF" points="18.525 20.063 19.563 17.861 22.063 19.013"/><g id="Group" fill="#8B9DB1" stroke="#8C9EB1" stroke-linecap="round" stroke-linejoin="round" stroke-width=".5" transform="translate(6.000000, 16.075949)"><polygon id="Path" points="3.4 10.81 4.013 5.671 .1 5.785"/><polygon id="Path" points="15.925 5.671 16.538 10.81 19.85 5.785"/><polygon id="Path" points="18.9 .013 11.875 .329 12.525 3.987 13.563 1.785 16.063 2.937"/><polygon id="Path" points="3.888 2.937 6.375 1.785 7.412 3.987 8.063 .329 1.038 .013"/></g><g id="Group" stroke="#9DAFC5" stroke-linecap="round" stroke-linejoin="round" stroke-width=".5" transform="translate(7.000000, 16.075949)"><polygon id="Path" fill="#9DAFC6" points=".037 .013 2.987 5.835 2.888 2.937"/><polygon id="Path" fill="#9DAFC6" points="15.063 2.937 14.95 5.835 17.9 .013"/><polygon id="Path" fill="#9DAFC5" points="7.063 .329 6.412 3.987 7.237 8.304 7.412 2.62"/><polygon id="Path" fill="#9DAFC5" points="10.875 .329 10.537 2.608 10.7 8.304 11.525 3.987"/></g><polygon id="Path" fill="#ABBCD7" stroke="#AABCD6" stroke-linecap="round" stroke-linejoin="round" stroke-width=".5" points="18.525 20.063 17.7 24.38 18.3 24.797 21.95 21.911 22.063 19.013"/><polygon id="Path" fill="#ABBCD7" stroke="#AABCD6" stroke-linecap="round" stroke-linejoin="round" stroke-width=".5" points="9.887 19.013 9.988 21.911 13.637 24.797 14.238 24.38 13.412 20.063"/><polygon id="Path" fill="#D4D8DA" stroke="#D4D8DA" stroke-linecap="round" stroke-linejoin="round" stroke-width=".5" points="18.6 28.772 18.637 27.595 18.325 27.316 13.613 27.316 13.313 27.595 13.338 28.772 9.4 26.886 10.775 28.025 13.575 29.987 18.363 29.987 21.163 28.025 22.538 26.886"/><polygon id="Path" fill="#464646" stroke="#464646" stroke-linecap="round" stroke-linejoin="round" stroke-width=".5" points="18.3 24.797 17.7 24.38 14.238 24.38 13.637 24.797 13.313 27.595 13.613 27.316 18.325 27.316 18.637 27.595"/><g id="Group" fill="#6D7781" stroke="#6D7881" stroke-linecap="round" stroke-linejoin="round" stroke-width=".5"><polygon id="Path" points="30.85 10.025 31.9 4.861 30.325 .063 18.3 9.101 22.925 13.063 29.462 15 30.9 13.291 30.275 12.835 31.275 11.911 30.512 11.304 31.512 10.532"/><polygon id="Path" points=".037 4.861 1.1 10.025 .425 10.532 1.425 11.304 .662 11.911 1.663 12.835 1.038 13.291 2.475 15 9.012 13.063 13.637 9.101 1.613 .063"/></g><polygon id="Path" fill="#ABBCD7" stroke="#AABCD6" stroke-linecap="round" stroke-linejoin="round" stroke-width=".5" points="29.462 15 22.925 13.063 24.9 16.089 21.95 21.911 25.85 21.861 31.65 21.861"/><polygon id="Path" fill="#ABBCD7" stroke="#AABCD6" stroke-linecap="round" stroke-linejoin="round" stroke-width=".5" points="9.012 13.063 2.475 15 .3 21.861 6.1 21.861 9.988 21.911 7.037 16.089"/><polygon id="Path" fill="#ABBCD7" stroke="#AABCD6" stroke-linecap="round" stroke-linejoin="round" stroke-width=".5" points="17.875 16.405 18.3 9.101 20.188 3.899 11.75 3.899 13.637 9.101 14.063 16.405 14.225 18.709 14.238 24.38 17.7 24.38 17.712 18.709"/></g></g></g></svg>